<?xml version="1.0" encoding="utf-8"?>
<!-- Generator: Adobe Illustrator 18.1.1, SVG Export Plug-In . SVG Version: 6.00 Build 0)  -->
<svg version="1.1" id="Layer_1" xmlns="http://www.w3.org/2000/svg" xmlns:xlink="http://www.w3.org/1999/xlink" x="0px" y="0px"
	 viewBox="0 0 150 50" enable-background="new 0 0 150 50" xml:space="preserve">
<path fill="#9EA6B1" d="M10.4,11.8l0.4-2.5H8.2V7.6c0-0.7,0.3-1.3,1.5-1.3h1.2V4.1c0,0-1.1-0.2-2.1-0.2c-2.1,0-3.5,1.2-3.5,3.4v1.9
	H2.9v2.5h2.4v6.2h2.9v-6.1H10.4z M51.1,7.4v0.5C51.1,12.6,47.5,18,41,18c-2,0-3.9-0.6-5.4-1.6h0.9c1.7,0,3.2-0.6,4.4-1.5
	c-1.6,0-2.9-1.1-3.3-2.5c0.2,0,0.4,0.1,0.7,0.1s0.6,0,0.9-0.1c-1.6-0.3-2.8-1.8-2.8-3.5c0.5,0.3,1,0.4,1.6,0.4
	c-1-0.6-1.6-1.7-1.6-2.9c0-0.7,0.2-1.3,0.5-1.8c1.7,2.1,4.4,3.5,7.3,3.7c-0.1-0.3-0.1-0.5-0.1-0.8c-0.1-2,1.5-3.6,3.4-3.6
	c1,0,1.9,0.4,2.6,1.1c0.8-0.2,1.6-0.4,2.2-0.9C52,4.9,51.5,5.6,50.7,6c0.7-0.1,1.4-0.3,2-0.5C52.4,6.3,51.8,6.9,51.1,7.4z
	 M82.9,10.2c1.2-0.6,1.8-1.5,1.8-2.9c0-2.7-2-3.4-4.3-3.4H74v13.7h6.6c2.5,0,4.8-1.2,4.8-4C85.4,12,84.5,10.7,82.9,10.2z M77,6.3
	h2.8c1.1,0,2,0.3,2,1.6c0,1.2-0.8,1.6-1.8,1.6h-3V6.3z M80.2,15.3H77v-3.7h3.2c1.3,0,2.1,0.6,2.1,2C82.4,14.9,81.4,15.3,80.2,15.3z
	 M93.9,6h-5.5V4.7h5.5V6z M96,12.8c0-2.9-1.7-5.4-4.8-5.4c-3,0-5,2.3-5,5.3c0,3.1,1.9,5.2,5,5.2c2.3,0,3.9-1.1,4.6-3.3h-2.4
	c-0.3,0.8-1.3,1.3-2.1,1.3c-1.6,0-2.4-0.9-2.4-2.5H96L96,12.8L96,12.8z M88.9,11.6c0.1-1.3,0.9-2.1,2.2-2.1c1.4,0,2,0.8,2.1,2.1
	H88.9z"/>
<path fill="#9EA6B1" d="M122.5,9.8l-2.2-3.3c1.4-1.6,3.4-2.6,5.5-2.6c1.2,0,2.4,0.3,3.5,0.9c1.2,0.7,2.2,1.7,2.7,2.9l-5.8-0.3
	C124.6,7.4,123.1,8.3,122.5,9.8z"/>
<path fill="#9EA6B1" d="M123.5,10.9c0,1.3,1.1,2.4,2.4,2.4s2.4-1.1,2.4-2.4s-1.1-2.4-2.4-2.4S123.5,9.6,123.5,10.9z"/>
<path fill="#9EA6B1" d="M132.3,8.4l-3.9,0.2c1.1,1.3,1.1,3.1,0.2,4.4l-3.2,4.9c1.3,0.1,2.7-0.2,3.9-0.9
	C132.3,15.2,133.6,11.6,132.3,8.4z"/>
<path fill="#9EA6B1" d="M122.6,12.3L120,7.1c-0.8,1.1-1.2,2.4-1.2,3.8c0,3.5,2.6,6.4,5.9,6.9l1.8-3.5
	C124.9,14.6,123.3,13.7,122.6,12.3z"/>
<path fill="#FFFFFF" d="M9.9,37.6l0.4-2.5H7.7v-1.6c0-0.7,0.4-1.4,1.5-1.4h1.2v-2.2c0,0-1.1-0.2-2.1-0.2c-2.1,0-3.5,1.2-3.5,3.4v2
	H2.4v2.5h2.4v6.1h2.9v-6.1C7.7,37.6,9.9,37.6,9.9,37.6z"/>
<path fill="#FFFFFF" d="M49.8,32.1v0.5c0,4.7-3.6,10.1-10.1,10.1c-2,0-3.9-0.6-5.4-1.6h0.9c1.7,0,3.2-0.6,4.4-1.5
	c-1.6,0-2.9-1.1-3.3-2.5c0.2,0,0.4,0.1,0.7,0.1s0.6,0,0.9-0.1c-1.6-0.3-2.8-1.8-2.8-3.5c0.5,0.3,1,0.4,1.6,0.4
	c-1-0.6-1.6-1.7-1.6-2.9c0-0.7,0.2-1.3,0.5-1.8c1.7,2.1,4.4,3.5,7.3,3.7c-0.1-0.3-0.1-0.5-0.1-0.8c0-1.9,1.6-3.5,3.5-3.5
	c1,0,1.9,0.4,2.6,1.1c0.8-0.2,1.6-0.4,2.2-0.9c-0.3,0.8-0.8,1.5-1.6,1.9c0.7-0.1,1.4-0.3,2-0.5C51.1,30.9,50.5,31.5,49.8,32.1z"/>
<path fill="#FFFFFF" d="M82.5,34.9c1.2-0.6,1.8-1.5,1.8-2.9c0-2.7-2-3.4-4.3-3.4h-6.4v13.7h6.6c2.5,0,4.8-1.2,4.8-4
	C85,36.7,84.1,35.4,82.5,34.9z"/>
<path fill="#FFFFFF" d="M76.6,31h2.8c1.1,0,2,0.3,2,1.6c0,1.2-0.8,1.6-1.8,1.6h-3V31z"/>
<path fill="#FFFFFF" d="M79.8,40.1h-3.2v-3.8h3.2c1.3,0,2.1,0.6,2.1,2C82,39.6,81,40.1,79.8,40.1z"/>
<rect x="88" y="29.3" fill="#FFFFFF" width="5.5" height="1.4"/>
<path fill="#FFFFFF" d="M95.6,37.6c0-2.9-1.7-5.4-4.8-5.4c-3,0-5,2.3-5,5.3c0,3.1,1.9,5.2,5,5.2c2.3,0,3.9-1.1,4.6-3.3H93
	c-0.3,0.8-1.3,1.3-2.1,1.3c-1.6,0-2.4-0.9-2.4-2.5h7.1L95.6,37.6L95.6,37.6z"/>
<path fill="#FFFFFF" d="M88.5,36.4c0.1-1.3,0.9-2.1,2.2-2.1c1.4,0,2,0.8,2.1,2.1H88.5z"/>
<path fill="#FFFFFF" d="M122.8,33.1l-2.2-3.3c1.3-1.7,3.4-2.6,5.4-2.6c1.2,0,2.4,0.3,3.5,0.9c1.2,0.7,2.2,1.7,2.7,2.9l-5.8-0.3
	C124.9,30.6,123.4,31.5,122.8,33.1L122.8,33.1z"/>
<path fill="#FFFFFF" d="M123.8,34.2c0,1.3,1.1,2.4,2.4,2.4s2.4-1.1,2.4-2.4s-1.1-2.4-2.4-2.4S123.8,32.9,123.8,34.2z"/>
<path fill="#FFFFFF" d="M132.6,31.6l-3.9,0.2c1.1,1.3,1.1,3.1,0.2,4.4l-3.2,4.9c1.3,0.1,2.7-0.2,3.9-0.9
	C132.6,38.5,133.9,34.8,132.6,31.6z"/>
<path fill="#FFFFFF" d="M122.9,35.5l-2.6-5.2c-0.7,1.1-1.1,2.4-1.1,3.8c0,3.5,2.6,6.4,5.9,6.9l1.8-3.5
	C125.2,37.9,123.6,37,122.9,35.5L122.9,35.5z"/>
</svg>
